<svg id="Layer_1" data-name="Layer 1" xmlns="http://www.w3.org/2000/svg" viewBox="0 0 220 100"><defs><style>.cls-1{fill:#f2f1ef;}.cls-2,.cls-3{fill:#2454a6;}.cls-3{stroke:#2454a6;stroke-linecap:round;stroke-linejoin:round;stroke-width:0.82px;}</style></defs><title>flag</title><rect class="cls-1" x="-4" y="-2" width="227" height="106.49"/><path class="cls-2" d="M203.67,66.72a21.41,21.41,0,1,1-21.41-21.41A21.42,21.42,0,0,1,203.67,66.72Z"/><path class="cls-2" d="M169.61,74.6c-11.89,3.22-26.94,5.74-26.62-2.25,0,0,1.07-7.56,9.14-.73,0,0,.27-.57-1.31-2.56,0,0,2-3,4.35,2.32,0,0,5.27,0,11.23-.65"/><path class="cls-2" d="M195.93,66.29c11.33,4.83,24.72,12.17,19.52,18.24,0,0-5.52,5.28-7.63-5.08,0,0-.56.28-.56,2.82,0,0-3.39,1.13-2-4.52,0,0-4.16-3.22-9.22-6.43"/><path class="cls-2" d="M175.9,83.32a93.4,93.4,0,0,1-2.83,13.28s-1.31,3.08,1.64,3.08h4.23c2.95,0,1.64-3.08,1.64-3.08a93.4,93.4,0,0,1-2.83-13.28"/><path class="cls-1" d="M176.78,94.22h0a4,4,0,0,0-3.65,2.48l.53.19a3.42,3.42,0,0,1,.69-1,3.35,3.35,0,0,1,4.89,0,3.85,3.85,0,0,1,.53.73c.11.2.15.32.16.32l.53-.19A4,4,0,0,0,176.78,94.22Z"/><path class="cls-2" d="M185.79,83.32A93.4,93.4,0,0,1,183,96.6s-1.31,3.08,1.64,3.08h4.23c2.95,0,1.64-3.08,1.64-3.08a93.4,93.4,0,0,1-2.83-13.28"/><path class="cls-1" d="M186.67,94.22h0A4,4,0,0,0,183,96.7l.53.19a3.5,3.5,0,0,1,.68-1,3.36,3.36,0,0,1,4.9,0,3.85,3.85,0,0,1,.53.73,2.17,2.17,0,0,1,.15.32l.54-.19A4,4,0,0,0,186.67,94.22Z"/><path class="cls-1" d="M180.62,59a1.53,1.53,0,1,1-1.53-1.52A1.53,1.53,0,0,1,180.62,59Z"/><path class="cls-1" d="M186.7,59a1.53,1.53,0,1,1-1.53-1.52A1.53,1.53,0,0,1,186.7,59Z"/><path class="cls-1" d="M163.72,66.72a18.54,18.54,0,0,1,18.54-18.54h0a.84.84,0,0,1,.84.85h0a.84.84,0,0,1-.84.85h0a16.85,16.85,0,0,0-16.84,16.84h0a.85.85,0,0,1-.85.85h0a.85.85,0,0,1-.85-.85Z"/><polygon class="cls-2" points="152.21 1.03 150.82 1.03 150.59 98.95 151.97 98.95 152.21 1.03"/><polygon class="cls-3" points="0.5 2.1 149.5 2.1 149.5 54.1 0.5 54.1 31.5 28.17 0.5 2.1"/><path class="cls-1" d="M44.34,12.15H46.4L51.14,25H49l-.77-2.11H42.51L41.74,25H39.59Zm3.21,8.78-2.18-6-2.18,6Z"/><path class="cls-1" d="M57,12.15h4.27a4.19,4.19,0,0,1,2.1.52,3.65,3.65,0,0,1,1.45,1.44,4.56,4.56,0,0,1,0,4.23,3.65,3.65,0,0,1-1.45,1.44,4.29,4.29,0,0,1-2.1.51H59.06V25H57Zm4.16,6.2a2,2,0,0,0,1.52-.59,2.11,2.11,0,0,0,.57-1.54,2.12,2.12,0,0,0-.57-1.54,2,2,0,0,0-1.52-.58H59.06v4.25Z"/><path class="cls-1" d="M67.26,12.15h2V23h6.1V25H67.26Z"/><path class="cls-1" d="M81.22,12.15h2.06L88,25H85.88l-.77-2.11H79.39L78.62,25H76.48Zm3.21,8.78-2.18-6-2.18,6Z"/><path class="cls-1" d="M91.32,24.22A6.33,6.33,0,0,1,89,21.85a6.9,6.9,0,0,1,0-6.56,6.36,6.36,0,0,1,2.28-2.38A6.16,6.16,0,0,1,94.55,12a5.94,5.94,0,0,1,2.74.63,6.46,6.46,0,0,1,2.14,1.72L98,15.82A4,4,0,0,0,94.55,14a4.1,4.1,0,0,0-2.2.6,4.17,4.17,0,0,0-1.51,1.66,5.25,5.25,0,0,0,0,4.64,4.17,4.17,0,0,0,1.51,1.66,4.1,4.1,0,0,0,2.2.6,4.19,4.19,0,0,0,2.2-.59,4.12,4.12,0,0,0,1.51-1.64,5.05,5.05,0,0,0,.54-2.35h2.09a6.72,6.72,0,0,1-.83,3.28,6.33,6.33,0,0,1-2.28,2.37,6.37,6.37,0,0,1-6.46,0Z"/><path class="cls-1" d="M102.76,12.15h8V14.1h-6v3.44h3.87v1.95h-3.87V23h6.11V25h-8.16Z"/><path class="cls-1" d="M120.12,24.22a6.33,6.33,0,0,1-2.28-2.37,6.9,6.9,0,0,1,0-6.56,6.36,6.36,0,0,1,2.28-2.38,6.41,6.41,0,0,1,6.45,0,6.31,6.31,0,0,1,2.29,2.38,6.9,6.9,0,0,1,0,6.56,6.28,6.28,0,0,1-2.29,2.37,6.35,6.35,0,0,1-6.45,0Zm5.43-1.67a4.17,4.17,0,0,0,1.51-1.66,5.25,5.25,0,0,0,0-4.64,4.17,4.17,0,0,0-1.51-1.66,4.33,4.33,0,0,0-4.4,0,4.17,4.17,0,0,0-1.51,1.66,5.25,5.25,0,0,0,0,4.64,4.17,4.17,0,0,0,1.51,1.66,4.33,4.33,0,0,0,4.4,0Z"/><path class="cls-1" d="M131.71,12.15h8.15V14.1h-6.1v3.44h3.5v1.95h-3.5V25h-2Z"/><path class="cls-1" d="M68,32.1H65.11v-2H73v2H70.08V43H68Z"/><path class="cls-1" d="M76.22,42.22a6.18,6.18,0,0,1-2.28-2.37,6.82,6.82,0,0,1,0-6.56,6.21,6.21,0,0,1,2.28-2.38,6.41,6.41,0,0,1,6.45,0A6.21,6.21,0,0,1,85,33.29a6.82,6.82,0,0,1,0,6.56,6.18,6.18,0,0,1-2.28,2.37,6.35,6.35,0,0,1-6.45,0Zm5.43-1.67a4.25,4.25,0,0,0,1.51-1.66,5.25,5.25,0,0,0,0-4.64,4.25,4.25,0,0,0-1.51-1.66,4.13,4.13,0,0,0-2.2-.6,4.08,4.08,0,0,0-2.2.6,4.2,4.2,0,0,0-1.52,1.66,5.25,5.25,0,0,0,0,4.64,4.2,4.2,0,0,0,1.52,1.66,4.08,4.08,0,0,0,2.2.6A4.13,4.13,0,0,0,81.65,40.55Z"/><path class="cls-1" d="M89.84,42.56a3.8,3.8,0,0,1-1.5-1.5,4.45,4.45,0,0,1-.54-2.2V30.15h2.06V39a2.21,2.21,0,0,0,.57,1.59,2.1,2.1,0,0,0,1.55.59,2.07,2.07,0,0,0,1.55-.59A2.18,2.18,0,0,0,94.11,39V30.15h2v8.71a4.45,4.45,0,0,1-.54,2.2,3.77,3.77,0,0,1-1.49,1.5,4.53,4.53,0,0,1-4.29,0Z"/><path class="cls-1" d="M101.3,42.22A6.28,6.28,0,0,1,99,39.85a6.9,6.9,0,0,1,0-6.56,6.31,6.31,0,0,1,2.29-2.38,6.12,6.12,0,0,1,3.22-.87,5.94,5.94,0,0,1,2.74.63,6.46,6.46,0,0,1,2.14,1.72L108,33.82A4,4,0,0,0,104.52,32a4.1,4.1,0,0,0-2.2.6,4.17,4.17,0,0,0-1.51,1.66,5.25,5.25,0,0,0,0,4.64,4.17,4.17,0,0,0,1.51,1.66,4.1,4.1,0,0,0,2.2.6,4,4,0,0,0,2.76-1,4.45,4.45,0,0,0,1.4-2.67h-4.23v-2h6.14V43h-1.91V41.24a4.62,4.62,0,0,1-1.82,1.39,5.93,5.93,0,0,1-2.34.47A6,6,0,0,1,101.3,42.22Z"/><path class="cls-1" d="M112.94,30.15h2v5.39h4.34V30.15h2.06V43h-2.06v-5.5H115V43h-2Z"/><path class="cls-1" d="M126.21,32.1h-2.92v-2h7.89v2h-2.92V43h-2Z"/><path class="cls-1" d="M133.6,42.55A4,4,0,0,1,132.12,41a4.1,4.1,0,0,1-.54-2.07h2a2.28,2.28,0,0,0,.56,1.56,2,2,0,0,0,1.51.62,2,2,0,0,0,1.52-.6,2.25,2.25,0,0,0,.55-1.58,1.89,1.89,0,0,0-.3-1.13,2,2,0,0,0-.76-.63,9.35,9.35,0,0,0-1.32-.49c-.49-.15-.85-.27-1.1-.37a3.32,3.32,0,0,1-1.47-1.13,3,3,0,0,1-.55-1.8,3.53,3.53,0,0,1,.44-1.75,3.24,3.24,0,0,1,1.21-1.2,3.58,3.58,0,0,1,1.73-.43A3.39,3.39,0,0,1,138.87,32l-1.55,1.12a1.94,1.94,0,0,0-.66-.8,1.67,1.67,0,0,0-1-.28,1.4,1.4,0,0,0-1,.37,1.24,1.24,0,0,0-.4,1,1.21,1.21,0,0,0,.23.76,1.7,1.7,0,0,0,.61.46c.26.11.64.26,1.14.43a7.62,7.62,0,0,1,.94.33,4.25,4.25,0,0,1,1.94,1.34,3.65,3.65,0,0,1,.68,2.29,4.21,4.21,0,0,1-.55,2.12,4.08,4.08,0,0,1-3.58,2.06A4.16,4.16,0,0,1,133.6,42.55Z"/></svg>