<?xml version="1.0" encoding="utf-8"?>
<!-- Generator: Adobe Illustrator 23.0.6, SVG Export Plug-In . SVG Version: 6.00 Build 0)  -->
<svg version="1.1" id="Layer_1" xmlns="http://www.w3.org/2000/svg" xmlns:xlink="http://www.w3.org/1999/xlink" x="0px" y="0px"
	 viewBox="0 0 220 100" style="enable-background:new 0 0 220 100;" xml:space="preserve">
<style type="text/css">
	.st0{fill:#F2F1EF;}
	.st1{fill:#2454A6;}
	.st2{fill:#2454A6;stroke:#2454A6;stroke-width:0.82;stroke-linecap:round;stroke-linejoin:round;}
</style>
<title>flag</title>
<rect x="-4" y="-2" class="st0" width="227" height="106.5"/>
<path class="st1" d="M203.7,66.7c0,11.8-9.6,21.4-21.4,21.4s-21.4-9.6-21.4-21.4s9.6-21.4,21.4-21.4
	C194.1,45.3,203.7,54.9,203.7,66.7z"/>
<path class="st1" d="M169.6,74.6c-11.9,3.2-26.9,5.7-26.6-2.2c0,0,1.1-7.6,9.1-0.7c0,0,0.3-0.6-1.3-2.6c0,0,2-3,4.4,2.3
	c0,0,5.3,0,11.2-0.7"/>
<path class="st1" d="M195.9,66.3c11.3,4.8,24.7,12.2,19.5,18.2c0,0-5.5,5.3-7.6-5.1c0,0-0.6,0.3-0.6,2.8c0,0-3.4,1.1-2-4.5
	c0,0-4.2-3.2-9.2-6.4"/>
<path class="st1" d="M175.9,83.3c-0.6,4.5-1.6,8.9-2.8,13.3c0,0-1.3,3.1,1.6,3.1h4.2c2.9,0,1.6-3.1,1.6-3.1
	c-1.3-4.4-2.2-8.8-2.8-13.3"/>
<path class="st0" d="M176.8,94.2L176.8,94.2c-1.6,0-3,1-3.6,2.5l0.5,0.2c0.2-0.4,0.4-0.7,0.7-1c1.3-1.4,3.4-1.4,4.7-0.2
	c0.1,0,0.1,0.1,0.2,0.2c0.2,0.2,0.4,0.5,0.5,0.7c0.1,0.2,0.1,0.3,0.2,0.3l0.5-0.2C179.9,95.2,178.4,94.2,176.8,94.2z"/>
<path class="st1" d="M185.8,83.3c-0.6,4.5-1.5,8.9-2.8,13.3c0,0-1.3,3.1,1.6,3.1h4.2c2.9,0,1.6-3.1,1.6-3.1
	c-1.3-4.4-2.2-8.8-2.8-13.3"/>
<path class="st0" d="M186.7,94.2L186.7,94.2c-1.6,0-3.1,1-3.7,2.5l0.5,0.2c0.2-0.4,0.4-0.7,0.7-1c1.3-1.4,3.4-1.4,4.7-0.2
	c0.1,0,0.1,0.1,0.2,0.2c0.2,0.2,0.4,0.5,0.5,0.7c0.1,0.1,0.1,0.2,0.1,0.3l0.5-0.2C189.7,95.2,188.3,94.2,186.7,94.2z"/>
<path class="st0" d="M180.6,59c0,0.8-0.7,1.5-1.5,1.5c-0.8,0-1.5-0.7-1.5-1.5c0-0.8,0.7-1.5,1.5-1.5c0,0,0,0,0,0
	C179.9,57.5,180.6,58.2,180.6,59z"/>
<path class="st0" d="M186.7,59c0,0.8-0.7,1.5-1.5,1.5c-0.8,0-1.5-0.7-1.5-1.5c0-0.8,0.7-1.5,1.5-1.5c0,0,0,0,0,0
	C186,57.5,186.7,58.2,186.7,59z"/>
<path class="st0" d="M163.7,66.7c0-10.2,8.3-18.5,18.5-18.5c0,0,0,0,0,0l0,0c0.5,0,0.8,0.4,0.8,0.8c0,0,0,0,0,0l0,0
	c0,0.5-0.4,0.8-0.8,0.8c0,0,0,0,0,0l0,0c-9.3,0-16.8,7.5-16.8,16.8l0,0c0,0.5-0.4,0.8-0.9,0.8l0,0l0,0
	C164.1,67.6,163.7,67.2,163.7,66.7C163.7,66.7,163.7,66.7,163.7,66.7z"/>
<polygon class="st1" points="152.2,1 150.8,1 150.6,98.9 152,98.9 "/>
<polygon class="st2" points="0.5,2.1 149.5,2.1 149.5,54.1 0.5,54.1 31.5,28.2 "/>
<g>
	<path class="st0" d="M44.7,12.3h2L51.5,25h-2.1l-0.8-2.1h-5.7L42.1,25H40L44.7,12.3z M47.9,21l-2.2-6l-2.2,6H47.9z"/>
	<path class="st0" d="M57.3,12.3h4.2c0.8,0,1.5,0.2,2.1,0.5c0.6,0.3,1.1,0.8,1.4,1.4c0.3,0.6,0.5,1.3,0.5,2.1c0,0.8-0.2,1.5-0.5,2.1
		c-0.3,0.6-0.8,1.1-1.4,1.4c-0.6,0.3-1.3,0.5-2.1,0.5h-2.2V25h-2V12.3z M61.4,18.4c0.6,0,1.1-0.2,1.5-0.6s0.6-0.9,0.6-1.5
		c0-0.6-0.2-1.1-0.6-1.5s-0.9-0.6-1.5-0.6h-2.1v4.2H61.4z"/>
	<path class="st0" d="M67.5,12.3h2v10.8h6.1V25h-8.1V12.3z"/>
	<path class="st0" d="M81.4,12.3h2L88.1,25H86l-0.8-2.1h-5.7L78.8,25h-2.1L81.4,12.3z M84.6,21l-2.2-6l-2.2,6H84.6z"/>
	<path class="st0" d="M91.4,24.3c-1-0.6-1.7-1.4-2.3-2.4c-0.6-1-0.8-2.1-0.8-3.3s0.3-2.3,0.8-3.3c0.6-1,1.3-1.8,2.3-2.4
		c1-0.6,2-0.9,3.2-0.9c1,0,1.9,0.2,2.7,0.6c0.8,0.4,1.5,1,2.1,1.7L98,15.9c-0.8-1.2-2-1.8-3.4-1.8c-0.8,0-1.5,0.2-2.2,0.6
		c-0.6,0.4-1.1,1-1.5,1.6c-0.4,0.7-0.5,1.5-0.5,2.3s0.2,1.6,0.5,2.3s0.9,1.2,1.5,1.6c0.6,0.4,1.4,0.6,2.2,0.6s1.5-0.2,2.2-0.6
		s1.1-0.9,1.5-1.6c0.4-0.7,0.5-1.5,0.5-2.3h2.1c0,1.2-0.3,2.3-0.8,3.3c-0.6,1-1.3,1.8-2.3,2.4s-2,0.9-3.2,0.9S92.4,24.9,91.4,24.3z"
		/>
	<path class="st0" d="M102.8,12.3h8v1.9h-6v3.4h3.8v1.9h-3.8v3.5h6.1V25h-8.1V12.3z"/>
	<path class="st0" d="M120,24.3c-1-0.6-1.7-1.4-2.3-2.4c-0.6-1-0.8-2.1-0.8-3.3s0.3-2.3,0.8-3.3c0.6-1,1.3-1.8,2.3-2.4
		c1-0.6,2-0.9,3.2-0.9s2.2,0.3,3.2,0.9c1,0.6,1.7,1.4,2.3,2.4s0.8,2.1,0.8,3.3s-0.3,2.3-0.8,3.3s-1.3,1.8-2.3,2.4s-2,0.9-3.2,0.9
		S121,24.9,120,24.3z M125.4,22.6c0.6-0.4,1.1-0.9,1.5-1.6s0.5-1.5,0.5-2.3s-0.2-1.6-0.5-2.3c-0.4-0.7-0.9-1.2-1.5-1.6
		c-0.6-0.4-1.4-0.6-2.2-0.6s-1.5,0.2-2.2,0.6c-0.6,0.4-1.1,1-1.5,1.6c-0.4,0.7-0.5,1.5-0.5,2.3s0.2,1.6,0.5,2.3s0.9,1.2,1.5,1.6
		c0.6,0.4,1.4,0.6,2.2,0.6S124.8,23,125.4,22.6z"/>
	<path class="st0" d="M131.5,12.3h8.1v1.9h-6.1v3.4h3.5v1.9h-3.5V25h-2V12.3z"/>
	<path class="st0" d="M56.1,32.4h-2.9v-1.9H61v1.9h-2.9v10.8h-2V32.4z"/>
	<path class="st0" d="M62.9,30.5h2v5.4h4.3v-5.4h2v12.7h-2v-5.5h-4.3v5.5h-2V30.5z"/>
	<path class="st0" d="M76.4,42.5c-1-0.6-1.7-1.4-2.3-2.4c-0.6-1-0.8-2.1-0.8-3.3s0.3-2.3,0.8-3.3c0.6-1,1.3-1.8,2.3-2.4
		c1-0.6,2-0.9,3.2-0.9s2.2,0.3,3.2,0.9c1,0.6,1.7,1.4,2.3,2.4c0.6,1,0.8,2.1,0.8,3.3s-0.3,2.3-0.8,3.3c-0.6,1-1.3,1.8-2.3,2.4
		s-2,0.9-3.2,0.9S77.4,43.1,76.4,42.5z M81.8,40.8c0.6-0.4,1.1-0.9,1.5-1.6c0.4-0.7,0.5-1.5,0.5-2.3s-0.2-1.6-0.5-2.3
		c-0.4-0.7-0.9-1.2-1.5-1.6c-0.6-0.4-1.4-0.6-2.2-0.6s-1.5,0.2-2.2,0.6c-0.6,0.4-1.1,1-1.5,1.6s-0.5,1.5-0.5,2.3s0.2,1.6,0.5,2.3
		s0.9,1.2,1.5,1.6c0.6,0.4,1.4,0.6,2.2,0.6S81.1,41.2,81.8,40.8z"/>
	<path class="st0" d="M89.9,42.8c-0.6-0.4-1.1-0.8-1.5-1.5c-0.4-0.6-0.5-1.4-0.5-2.2v-8.7h2v8.8c0,0.7,0.2,1.2,0.6,1.6
		c0.4,0.4,0.9,0.6,1.5,0.6s1.2-0.2,1.5-0.6c0.4-0.4,0.6-0.9,0.6-1.6v-8.8h2v8.7c0,0.8-0.2,1.5-0.5,2.2c-0.4,0.6-0.9,1.1-1.5,1.5
		c-0.6,0.4-1.3,0.5-2.1,0.5C91.3,43.4,90.6,43.2,89.9,42.8z"/>
	<path class="st0" d="M101.3,42.5c-1-0.6-1.7-1.4-2.3-2.4c-0.6-1-0.8-2.1-0.8-3.3s0.3-2.3,0.8-3.3c0.6-1,1.3-1.8,2.3-2.4
		c1-0.6,2-0.9,3.2-0.9c1,0,1.9,0.2,2.7,0.6c0.8,0.4,1.5,1,2.1,1.7l-1.4,1.4c-0.8-1.2-2-1.8-3.4-1.8c-0.8,0-1.5,0.2-2.2,0.6
		c-0.6,0.4-1.1,1-1.5,1.6s-0.5,1.5-0.5,2.3s0.2,1.6,0.5,2.3s0.9,1.2,1.5,1.6c0.6,0.4,1.4,0.6,2.2,0.6c1.1,0,2-0.3,2.7-1
		c0.7-0.7,1.2-1.5,1.4-2.7h-4.2v-1.9h6.1v7.4h-1.9v-1.7c-0.5,0.6-1.1,1.1-1.8,1.4c-0.7,0.3-1.5,0.5-2.3,0.5
		C103.3,43.4,102.3,43.1,101.3,42.5z"/>
	<path class="st0" d="M112.9,30.5h2v5.4h4.3v-5.4h2v12.7h-2v-5.5h-4.3v5.5h-2V30.5z"/>
	<path class="st0" d="M126.1,32.4h-2.9v-1.9h7.8v1.9h-2.9v10.8h-2V32.4z"/>
	<path class="st0" d="M133.4,42.8c-0.6-0.4-1.1-0.9-1.5-1.5c-0.4-0.6-0.5-1.3-0.5-2.1h2c0,0.6,0.2,1.1,0.6,1.5
		c0.4,0.4,0.9,0.6,1.5,0.6c0.6,0,1.1-0.2,1.5-0.6c0.4-0.4,0.6-0.9,0.6-1.6c0-0.5-0.1-0.8-0.3-1.1c-0.2-0.3-0.5-0.5-0.8-0.6
		c-0.3-0.1-0.7-0.3-1.3-0.5c-0.5-0.1-0.9-0.3-1.1-0.4c-0.6-0.2-1.1-0.6-1.5-1.1s-0.5-1.1-0.5-1.8c0-0.6,0.1-1.2,0.4-1.7
		c0.3-0.5,0.7-0.9,1.2-1.2c0.5-0.3,1.1-0.4,1.7-0.4c1.5,0,2.5,0.6,3.2,1.9l-1.5,1.1c-0.2-0.3-0.4-0.6-0.7-0.8
		c-0.3-0.2-0.6-0.3-0.9-0.3c-0.4,0-0.8,0.1-1,0.4c-0.3,0.2-0.4,0.6-0.4,0.9c0,0.3,0.1,0.6,0.2,0.8c0.2,0.2,0.4,0.3,0.6,0.5
		c0.3,0.1,0.6,0.3,1.1,0.4c0.3,0.1,0.6,0.2,0.9,0.3c0.8,0.3,1.5,0.8,1.9,1.3s0.7,1.3,0.7,2.3c0,0.8-0.2,1.5-0.5,2.1
		c-0.4,0.6-0.9,1.1-1.5,1.5c-0.6,0.4-1.3,0.5-2.1,0.5C134.7,43.4,134,43.2,133.4,42.8z"/>
</g>
</svg>
