<svg id="Layer_1" data-name="Layer 1" xmlns="http://www.w3.org/2000/svg" viewBox="0 0 220 100"><defs><style>.cls-1,.cls-4{fill:#f2f1ef;}.cls-2,.cls-3{fill:#2454a6;}.cls-3{stroke:#2454a6;stroke-linecap:round;stroke-linejoin:round;stroke-width:0.82px;}.cls-4{font-size:18.33px;font-family:Raisonne-DemiBold, Raisonne;font-weight:300;}.cls-5{letter-spacing:-0.05em;}.cls-6{letter-spacing:-0.08em;}.cls-7{letter-spacing:-0.06em;}</style></defs><title>flag</title><rect class="cls-1" x="-4" y="-2" width="227" height="106.49"/><path class="cls-2" d="M203.67,66.72a21.41,21.41,0,1,1-21.41-21.41A21.42,21.42,0,0,1,203.67,66.72Z"/><path class="cls-2" d="M169.61,74.6c-11.89,3.22-26.94,5.74-26.62-2.25,0,0,1.07-7.56,9.14-.73,0,0,.27-.57-1.31-2.56,0,0,2-3,4.35,2.32,0,0,5.27,0,11.23-.65"/><path class="cls-2" d="M195.93,66.29c11.33,4.83,24.72,12.17,19.52,18.24,0,0-5.52,5.28-7.63-5.08,0,0-.56.28-.56,2.82,0,0-3.39,1.13-2-4.52,0,0-4.16-3.22-9.22-6.43"/><path class="cls-2" d="M175.9,83.32a93.4,93.4,0,0,1-2.83,13.28s-1.31,3.08,1.64,3.08h4.23c2.95,0,1.64-3.08,1.64-3.08a93.4,93.4,0,0,1-2.83-13.28"/><path class="cls-1" d="M176.78,94.22h0a4,4,0,0,0-3.65,2.48l.53.19a3.42,3.42,0,0,1,.69-1,3.35,3.35,0,0,1,4.89,0,3.85,3.85,0,0,1,.53.73c.11.2.15.32.16.32l.53-.19A4,4,0,0,0,176.78,94.22Z"/><path class="cls-2" d="M185.79,83.32A93.4,93.4,0,0,1,183,96.6s-1.31,3.08,1.64,3.08h4.23c2.95,0,1.64-3.08,1.64-3.08a93.4,93.4,0,0,1-2.83-13.28"/><path class="cls-1" d="M186.67,94.22h0A4,4,0,0,0,183,96.7l.53.19a3.5,3.5,0,0,1,.68-1,3.36,3.36,0,0,1,4.9,0,3.85,3.85,0,0,1,.53.73,2.17,2.17,0,0,1,.15.32l.54-.19A4,4,0,0,0,186.67,94.22Z"/><path class="cls-1" d="M180.62,59a1.53,1.53,0,1,1-1.53-1.52A1.53,1.53,0,0,1,180.62,59Z"/><path class="cls-1" d="M186.7,59a1.53,1.53,0,1,1-1.53-1.52A1.53,1.53,0,0,1,186.7,59Z"/><path class="cls-1" d="M163.72,66.72a18.54,18.54,0,0,1,18.54-18.54h0a.84.84,0,0,1,.84.85h0a.84.84,0,0,1-.84.85h0a16.85,16.85,0,0,0-16.84,16.84h0a.85.85,0,0,1-.85.85h0a.85.85,0,0,1-.85-.85Z"/><polygon class="cls-2" points="152.21 1.03 150.82 1.03 150.59 98.95 151.97 98.95 152.21 1.03"/><polygon class="cls-3" points="0.5 2.1 149.5 2.1 149.5 54.1 0.5 54.1 31.5 28.17 0.5 2.1"/><text class="cls-4" transform="translate(39.3 24.99)">A PL<tspan class="cls-5" x="36.88" y="0">A</tspan><tspan x="48.06" y="0">CE OF</tspan><tspan class="cls-6" x="25.08" y="18">T</tspan><tspan x="32.96" y="18">OUGH</tspan><tspan class="cls-7" x="83.26" y="18">T</tspan><tspan x="91.58" y="18">S</tspan></text></svg>