<svg xmlns="http://www.w3.org/2000/svg" viewBox="0 0 264.51 263.58"><defs><style>.cls-1{fill:#e62158;}</style></defs><title>Asset 1</title><g id="Layer_2" data-name="Layer 2"><g id="Layer_1-2" data-name="Layer 1"><path class="cls-1" d="M188.67,263.58a75.92,75.92,0,0,1-75.84-75.84,10,10,0,0,1,20,0,55.84,55.84,0,1,0,111.67,0,10,10,0,0,1,20,0A75.92,75.92,0,0,1,188.67,263.58Z"/><path class="cls-1" d="M10,78.37a10,10,0,0,1-10-10V10A10,10,0,0,1,10,0H76.38a10,10,0,0,1,0,20H20V68.37A10,10,0,0,1,10,78.37Z"/><path class="cls-1" d="M76.38,169.69H10a10,10,0,0,1-10-10v-58a10,10,0,0,1,20,0v48H76.38a10,10,0,0,1,0,20Z"/><path class="cls-1" d="M122.83,169.69a10,10,0,0,1-10-10V10a10,10,0,0,1,20,0V159.69A10,10,0,0,1,122.83,169.69Z"/><path class="cls-1" d="M208.3,169.69a10,10,0,0,1-10-10V96.18c0-.09-.13-15.2-10.75-23.4-9.4-7.26-25.69-4.79-31.18-3.23a10,10,0,0,1-5.59-19.2c1.2-.35,29.56-8.42,49,6.6C218,71,218.31,94.31,218.3,96.33v63.36A10,10,0,0,1,208.3,169.69Z"/><path class="cls-1" d="M52.81,94.68H40.19a10,10,0,1,1,0-20H52.81a10,10,0,0,1,0,20Z"/><circle class="cls-1" cx="254.51" cy="159.69" r="10"/></g></g></svg>